<?xml version="1.0" encoding="UTF-8"?>
<svg id="dna-broken" data-name="DNA Broken" fill="#62748e" xmlns="http://www.w3.org/2000/svg" viewBox="0 0 2082 3327">
  <path d="M522,3326c-7.92-4.6-16.59-5.06-24.67-10.33-24.01-15.68-22.64-42.93-18.78-68.09,13.32-86.9,87.24-154,153.65-204.28,65.33-49.46,136.62-90.47,205.78-134.18-96.93-62.77-193.56-126.03-256.03-225.88-86.11-137.63-82.96-296.08,3.21-432.74,34.91-55.37,82.54-102.49,134.96-141.25-37.85-73.64-40.33-155.49,13.83-221.65l-96.97-71.12c-34.51-44.53,12.01-101.45,62.89-76.86l117.58,82.55c29.26-11.01,59.3-19.44,90.34-23.88l-61.82-332.79c.35-57.82,78.11-73.45,98.1-17.99l68.18,352.72,62.84,9.48c20.17-28.92,33.88-69.3,38.62-104.49,32.06-238.19-195.39-339.18-354.35-454.94-78.63-57.27-151.79-121.26-196.44-209.5l-4.18-3.82-318.73-132.21c-6.92,70.26-24.82,202.19-115.04,209.9-45.64,3.9-71.07-31.87-53.95-73.93,10.99-27.02,32.44-23.55,39.89-34.1,10.15-14.39,19.94-71.79,22.77-91.21,20.97-143.92,5.02-303.51,44.9-442.97,31.04-108.54,89.54-121.28,193.85-104.95,103.74,16.23,204.23,53.37,305.15,80.83,18.63,5.07,65.33,20.48,81.56,20.67,3.74.04,4.88-.57,8.04-1.96,3.39-1.49,39.91-26.83,40.82-29.17l-18.19-15.76c-82.58-61.64-171.12-114.92-254.43-175.52-51.18-37.23-127.85-90.14-152.3-149.66-15.54-37.83-20.23-85.65,29.92-95.91,121.9-1.86,244.39,1.6,365.89,2.07,122.64.47,250.44-4.92,372.14,1.92,26.13,1.47,52.18-3.13,66,25.99,11.71,24.67.5,90.48-5.65,118.37-30.65,139.01-137.95,229.04-248.46,307.49,17.68,44.65,2.44,93.07-41.18,114.75-43.36,21.55-93.08,15.34-139.66,12.17-14.04,13.29-30.12,24.76-44.11,38.04-3.23,3.06-17.97,16.83-18.92,19.05-3.3,7.71.81,12.98.55,18.96-.83,18.76-11.53,36.99-28.85,44.73-8.14,3.64-14.17,2.89-20.84,5.15-6.32,2.15-17.65,27.7-20.83,35.16-62.74,147.12-4.2,273.49,108.91,370.85,147.77,127.2,334.64,189.72,425.75,378.14,3,6.21,14.71,39.2,16.31,40.7,3.42,3.19,3.35-.99,4.16-2.8,13.18-29.19,31.47-107.69,51.77-126.2,39-35.57,99.71,7.94,80.6,56.59l-140.56,378.31,97.98,27.12,82.07-116.03c41.75-45.19,112.02,2.87,82.36,58.34l-58.4,81.58c13.03,4.39,25.22,1.79,38.06,7.91,35.09,16.74,36.88,73.62,3.34,93.46-20.67,12.23-65.73,4.49-89.46.63-78.39-12.75-151.75-46.5-228.91-63.11-10.73,7.96-19.57,21.62-28.99,31.13-33.3,33.6-71.85,62.15-110.04,89.93l151.95,58.01c52.13,26.23,27.29,106.85-36.08,94.06l-213.41-80.71c-5.24-3.66-25.78,11.66-25.99,14.58,91.96,134.62,222.84,251.63,293.23,400.19,76.41,161.25,42.96,245.53-90.8,350.53-5.57,4.37-36.95,24.89-36.94,29.05,85.92,64.57,157.46,154.09,183.88,260.09,7.14,28.63,19.57,94.93,6.95,120.62-8.29,16.88-24.6,22.17-40.81,28.19h-654v-.02ZM1111.99,104.98l-588.01-2.99c7.8,8.99,17.87,17.38,27.07,24.92,37.31,30.6,78.57,56.17,117.8,84.17l8.02,1.98,391.74-.51c5.64-1.7,21.25-36.28,24.32-43.67,8.56-20.57,14.85-42.03,19.06-63.9ZM980,312.91h-154l74.97,62,79.03-62ZM613.59,602.38c9.01-16.51,28.47-29.55,38.43-44.55,1.34-2.02,3.21-1.54,0-4.01-88.41-26.27-177.11-57.79-267.63-76.35-21.12-4.33-65.3-14.58-84.95-10.19-1.99.44-3.76,1.43-5.39,2.61-13.48,9.8-25.3,85.11-27.95,104.06-.45,3.18-.4,3.22,2.79,2.78,8.26-1.14,13.22-2.28,22.11-1.88,98.87,4.42,201.13,23.11,300.03,27.94,7.45.36,15.16.29,22.57-.41h0ZM552,698.8l-293.99-27.99-8.1,128.63,272.07,113.29c-5.46-54.54-2.28-107.61,12.59-160.38,5.1-18.12,13.74-35.41,17.44-53.54h-.01ZM1000,1902.45c-67.04-8.58-145.5-2.59-187.66,57.3-4.78,6.79-9.48,13.69-12.04,21.72l61.22,24.54h6.97c45.82-31.6,92.77-63.53,131.52-103.56h-.01ZM748,2224.33h44c-1.24-3.6-13.74-23.91-15.15-24.13-4.79-.76-25.25,18.69-28.85,24.13ZM954,2428.27c-26.13-35.67-53.51-71.17-83.41-103.56l-206.58.6c-19.07,30.69-31.28,67.02-36.01,102.96h326ZM1078,2632.21c-12.19-36.57-30.32-72.79-53-103.97h-393c5.19,37.2,22.4,72.95,43,103.97h403ZM1072,2732.18h-302c49.84,45.07,108.44,80.71,164.64,117.65,43.56-30.28,93.88-62.84,128.39-103.63,1.52-1.79,10.51-12.7,8.97-14.02ZM868,3018.09h116l-13.05-13.94-37.95-28.02c-20.25,13.17-42.47,23.88-62.39,37.5-1.8,1.23-3.66-.34-2.61,4.47h0ZM1112,3224.03c-.47-10.75-3.61-22.11-6.57-32.42-3.33-11.58-25.85-70.47-34.81-73.16l-364.53.69c-30.64,23.94-63.64,49.34-89.11,78.87-6.28,7.28-14.43,16.72-16.97,26.02h512-.01Z"/>
  <path d="M2082,1276.62v23.99l-11.12,21.88-342.89,219.04c-58.3,25.87-100.34-50.89-49.86-87.84l330.5-209.43c30.02-15.24,63.94.88,73.36,32.35h.01Z"/>
  <path d="M395.52,1129.18c15.72-1.91,29.2,3.9,41.27,13.69l238.46,315.44c32.48,45.73-20.43,101.89-67.92,71.9-86.61-103.08-163.71-214.85-246.59-321.32-21.6-31.33-3.52-75.06,34.77-79.71h0Z"/>
  <path d="M1379.48,665.28c49.5-8.42,79.23,37.28,53.39,79.37-29.98,27.83-58.49,57.76-88.84,85.13-22.25,20.06-40.22,41.51-73.4,29.33-30.64-11.24-42.2-49.45-23.5-76.22,32.43-30.66,63.55-63.44,96.84-93.13,8.91-7.94,23.98-22.52,35.51-24.49h0Z"/>
  <path d="M799.33,617.58c48.15,9.72,101.65,12.38,149.07,23.82,65.1,15.7,53.88,103.37-15.48,99.44-35.46-2.01-104.15-14.15-139.32-22.67-67.12-16.26-50.54-99.46,5.73-100.6h0Z"/>
  <path d="M75.61,1287.12c31.95-2.61,57.72,24.91,54.35,56.45l-32.96,154.98c-25.27,49.24-94.84,32.52-96.45-22.45,10.8-46.18,16.58-95.84,28.43-141.52,6.46-24.93,17.9-45.11,46.64-47.46h-.01Z"/>
</svg>